<svg id="ebed12c7-66df-4bf0-9fd9-7632f815e95e" data-name="Layer 1" xmlns="http://www.w3.org/2000/svg" viewBox="0 0 300 300"><title>Logo (Gray)</title><path d="M129.9175,269.5322q-2.5152-4.3989,1.5693-49.8955,4.0745-45.498,2.51-47.0713-1.5739-1.56-9.7281,5.6485-8.1642,7.2216-14.749,7.2177-6.59,0-10.3559,3.7657-6.2805,5.6484-28.5567,10.9834-22.2853,5.3392-29.1841,2.8242-12.5625-5.017-12.5522-16.9463,0-11.9151,13.18-22.5938c2.9223-2.5107,5.3349-3.5507,7.2178-3.1386q2.8242.6327,8.4726,6.9043,8.7818,9.4144,17.5737,9.414,7.5308,0,32.0083-10.9834,24.4776-10.9731,24.4771-14.749,0-4.3836-31.0669-17.8872-31.0671-13.489-41.7368-13.4937a39.9222,39.9222,0,0,0-25.1045,8.7867Q18.1963,140.88,16.9463,134.5942q-.6329-4.3835,10.042-16.9458,39.54-44.5561,94.1426-18.2011,21.33,10.6794,22.2807,9.728.9412-.9411,2.51-12.5523,1.5593-11.606-7.2178-18.5146-6.2805-5.0163-5.9624-7.5313.3091-2.5011,10.356-10.67,13.1807-10.664,18.2011-10.6694,5.0157,0,10.041-6.9038,9.4161-10.6649,15.0625-5.021,2.502,2.5158.6289,8.7866-5.6484,18.2109-10.67,48.3267-5.03,30.126-3.1386,32.6362,3.1347,3.1479,11.9257-2.51Q235.3516,93.8088,249.793,101.33q10.664,5.6491,12.2382,15.3769,1.5586,9.7376-6.59,16.6319-18.829,15.063-28.8711.6274-4.3974-5.6484-7.5312-5.6484-3.1466,0-14.4356,5.6484-11.93,5.6484-13.18,7.8452-1.2656,2.2068,5.0215,7.8452,39.5391,35.7751,67.1543,13.8081,18.1963-13.7988,18.83-6.2763.6151,8.7963-19.457,25.7324-32.64,28.2422-62.7618,15.69-16.9452-6.8994-23.85-5.6484-6.9139,1.2642-9.414,11.9248a174.0962,174.0962,0,0,1-6.2774,21.3389c-1.2539,2.9316-1.4707,4.9228-.6269,5.9619q1.251,1.5747,6.9043,1.5693,20.71,0-6.2774,23.2217-3.7646,3.1334-8.1582,6.2764-10.6794,8.1489-15.0625,9.414Q133.0511,273.9209,129.9175,269.5322Z" style="fill:#495057"/></svg>